<svg width="120" height="120" viewBox="0 0 120 120" xmlns="http://www.w3.org/2000/svg" role="img">
  <title>FOSSIL trilobite logo</title>
  <rect width="120" height="120" fill="#0d0d0d"/>
  <rect x="44" y="16" width="32" height="8" fill="#c97b4b"/>
  <rect x="36" y="24" width="48" height="8" fill="#c97b4b"/>
  <rect x="32" y="32" width="56" height="8" fill="#c97b4b"/>
  <rect x="48" y="24" width="24" height="8" fill="#e8955f"/>
  <rect x="52" y="32" width="16" height="8" fill="#e8955f"/>
  <rect x="36" y="40" width="48" height="6" fill="#c97b4b"/>
  <rect x="52" y="40" width="16" height="6" fill="#e8955f"/>
  <rect x="38" y="46" width="44" height="6" fill="#c97b4b"/>
  <rect x="52" y="46" width="16" height="6" fill="#e8955f"/>
  <rect x="40" y="52" width="40" height="6" fill="#c97b4b"/>
  <rect x="52" y="52" width="16" height="6" fill="#e8955f"/>
  <rect x="42" y="58" width="36" height="6" fill="#c97b4b"/>
  <rect x="52" y="58" width="16" height="6" fill="#e8955f"/>
  <rect x="44" y="64" width="32" height="6" fill="#c97b4b"/>
  <rect x="52" y="64" width="16" height="6" fill="#e8955f"/>
  <rect x="48" y="70" width="24" height="6" fill="#c97b4b"/>
  <rect x="52" y="76" width="16" height="6" fill="#c97b4b"/>
  <rect x="56" y="82" width="8" height="6" fill="#c97b4b"/>
  <rect x="40" y="28" width="6" height="6" fill="#5c3a1e"/>
  <rect x="74" y="28" width="6" height="6" fill="#5c3a1e"/>
  <rect x="28" y="42" width="8" height="4" fill="#a06040"/>
  <rect x="26" y="48" width="12" height="4" fill="#a06040"/>
  <rect x="28" y="54" width="10" height="4" fill="#a06040"/>
  <rect x="30" y="60" width="10" height="4" fill="#a06040"/>
  <rect x="84" y="42" width="8" height="4" fill="#a06040"/>
  <rect x="82" y="48" width="12" height="4" fill="#a06040"/>
  <rect x="82" y="54" width="10" height="4" fill="#a06040"/>
  <rect x="80" y="60" width="10" height="4" fill="#a06040"/>
</svg>